# xmcd
#
# Track frame offsets: 
#        150
#        17650
#        39063
#        58587
#        78224
#
# Disc length: 1302 seconds
#
# Revision: 0
# Processed by: cddbd v1.5.2PL0 Copyright (c) Steve Scherf et al.
# Submitted via: ExactAudioCopyFreeDBPlugin 1.0
#
DISCID=2a051405
DTITLE=Dirt Box Charlie - Introducing Dirt Box Charlie
DYEAR=2011
DGENRE=
TTITLE0=Unknown Artist - Downside Up
TTITLE1=Unknown Artist - Am I Going Mad?
TTITLE2=Unknown Artist - No More Cry'n
TTITLE3=Unknown Artist - Wind Me Up
TTITLE4=Unknown Artist - Don't Get It
EXTD=
EXTT0=
EXTT1=
EXTT2=
EXTT3=
EXTT4=
PLAYORDER=
